<svg width="424" height="456" viewBox="0 0 424 456" fill="none" xmlns="http://www.w3.org/2000/svg">
<g filter="url(#filter0_d_263_3098)">
<path d="M141.731 326.544C143.473 326.544 145.15 326.411 146.628 326.289C147.289 326.233 147.896 326.189 148.469 326.156C154.789 325.8 160.965 324.623 166.932 323.478C174.586 322.023 185.317 319.379 194.934 316.602C196.213 316.236 197.261 315.391 197.901 314.214C198.54 313.047 198.695 311.692 198.331 310.415C197.724 308.282 195.761 306.793 193.566 306.793C193.103 306.793 192.64 306.86 192.188 306.993C182.857 309.704 172.468 312.248 165.09 313.658C159.432 314.736 153.576 315.847 147.907 316.169C147.267 316.202 146.562 316.258 145.823 316.324C144.609 316.424 143.087 316.547 141.665 316.547C140.827 316.547 140.099 316.502 139.503 316.413C142.36 311.003 145.58 305.66 148.69 300.484C153.785 292.03 159.046 283.287 163.094 273.712C164.936 269.346 166.601 264.825 168.024 260.281L168.156 259.882C169.093 256.993 170.836 251.606 167.45 248.318C166.634 247.518 165.2 246.573 163.05 246.573C162.09 246.573 161.086 246.762 160.039 247.151C154.26 249.273 148.249 250.584 142.128 251.05C142.426 250.695 142.746 250.317 143.087 249.928C149.672 242.485 155.528 234.454 160.513 226.056L162.244 223.145C166.193 216.536 170.273 209.715 173.328 202.506C174.2 200.451 175.821 196.618 174.762 192.452C174.398 190.997 173.648 189.842 172.545 189.031C171.575 188.32 170.45 187.953 169.204 187.953C168.84 187.953 168.454 187.987 168.079 188.053L165.443 188.498C160.987 189.253 156.399 190.031 151.955 190.297C154.26 183.876 160.811 171.268 163.072 166.891C164.395 164.336 165.443 162.326 165.972 161.182C166.204 160.693 166.535 159.926 166.943 158.96C173.461 143.852 176.858 140.209 177.983 139.353C178.534 139.742 179.185 140.364 179.78 140.931C181.038 142.119 184.071 144.485 189.761 148.918C196.941 154.505 215.304 168.802 221.712 175.523C217.554 177.067 213.065 178.211 208.72 179.322L206.15 179.977C204.474 180.411 203.228 181.322 202.445 182.677C201.761 183.876 201.54 185.232 201.783 186.72C202.478 190.964 205.5 193.808 207.121 195.341C212.79 200.695 219.252 205.283 225.495 209.715L228.274 211.692C236.204 217.358 244.762 222.323 253.729 226.456C254.203 226.678 254.655 226.889 255.085 227.111C249.295 229.166 243.273 230.41 237.141 230.81C232.983 231.077 231.406 233.476 230.833 234.887C229.057 239.264 232.807 243.496 234.825 245.763L235.101 246.074C238.233 249.651 241.553 253.116 244.983 256.36C252.515 263.481 260.831 269.346 268.882 275.011C273.801 278.477 278.896 282.065 283.661 285.865C282.084 286.864 279.602 287.731 277.849 288.342C277.143 288.586 276.47 288.819 275.874 289.053C270.559 291.063 264.757 292.419 259.144 293.729C248.236 296.273 228.947 299.439 216.804 300.095C214.069 300.239 211.973 302.605 212.117 305.36C212.26 308.015 214.433 310.092 217.058 310.092C217.146 310.092 217.245 310.092 217.333 310.092C230.006 309.404 250.067 306.127 261.383 303.483C267.316 302.094 273.437 300.672 279.36 298.428C279.867 298.24 280.418 298.04 281.003 297.84C285.183 296.384 290.785 294.429 293.476 289.853C295.638 286.176 294.26 281.577 289.947 278.144C284.907 274.134 279.646 270.424 274.573 266.847C266.809 261.381 258.791 255.716 251.777 249.095C248.821 246.296 245.942 243.33 243.229 240.264C250.321 239.286 257.236 237.32 263.82 234.41C264.327 234.187 265.375 233.721 266.312 232.743C267.923 231.066 268.573 228.933 268.165 226.733C267.515 223.257 264.349 220.379 257.897 217.413C249.471 213.536 241.442 208.882 234.031 203.583L231.23 201.595C225.34 197.407 219.264 193.086 214.135 188.298C218.911 187.054 223.554 185.721 228.009 183.821C229.013 183.399 231.671 182.255 232.972 179.333C234.935 174.912 232.057 170.779 219.605 160.126C212.172 153.761 202.753 146.441 195.882 141.086C191.57 137.731 187.567 134.61 186.618 133.721C185.162 132.344 183.354 130.633 180.872 129.711C179.924 129.355 178.953 129.178 177.994 129.178C169.711 129.178 163.259 142.53 157.855 155.039C157.48 155.916 157.193 156.572 156.995 157.005C156.554 157.949 155.506 159.971 154.293 162.315C140.926 188.053 138.963 194.452 143.253 198.362C144.775 199.751 146.793 200.462 149.23 200.462H149.605C154.436 200.395 159.223 199.728 164.086 198.929C161.307 205.416 157.469 211.837 153.752 218.058L151.999 220.99C147.334 228.855 141.852 236.365 135.709 243.319C130.978 248.673 129.224 252.594 130.018 256.038C130.526 258.226 131.981 259.915 134.121 260.792C135.378 261.303 136.514 261.303 137.066 261.303C144.256 261.303 151.381 260.293 158.252 258.304C156.984 262.214 155.55 266.102 153.962 269.857C150.19 278.777 145.117 287.198 140.209 295.351C136.977 300.706 133.658 306.227 130.658 311.937C128.088 316.824 128.662 321.59 132.114 324.078C134.463 325.767 137.606 326.589 141.731 326.589V326.544Z" fill="#49CBF4"/>
<path d="M178.005 130.244C170.439 130.244 164.208 143.097 158.881 155.438C158.506 156.305 158.219 156.982 158.009 157.427C157.557 158.393 156.509 160.426 155.285 162.781C142.393 187.598 140.286 194.085 144.014 197.473C145.845 199.14 148.094 199.284 149.253 199.284C149.385 199.284 149.506 199.284 149.605 199.284C155.12 199.206 160.568 198.34 165.862 197.44C165.674 197.973 165.454 198.506 165.244 199.017C162.432 205.66 158.517 212.214 154.723 218.568L152.969 221.501C148.271 229.422 142.745 236.998 136.558 243.996C132.081 249.062 130.415 252.672 131.121 255.727C131.54 257.549 132.764 258.959 134.562 259.704C135.621 260.137 136.569 260.137 137.088 260.137C144.885 260.137 152.572 258.937 159.973 256.571C159.917 256.749 159.862 256.938 159.796 257.138L159.653 257.604C158.307 261.881 156.741 266.124 155.01 270.235C151.216 279.221 146.109 287.686 141.179 295.873C137.97 301.205 134.65 306.715 131.662 312.403C129.368 316.768 129.809 320.979 132.786 323.123C135.356 324.978 138.643 325.433 141.764 325.433C143.462 325.433 145.117 325.3 146.573 325.178C147.234 325.122 147.863 325.067 148.436 325.044C154.679 324.689 160.822 323.523 166.766 322.389C174.398 320.934 185.085 318.313 194.669 315.535C196.721 314.947 197.901 312.792 197.316 310.725C196.831 309.026 195.287 307.915 193.61 307.915C193.258 307.915 192.894 307.959 192.541 308.07C183.177 310.781 172.755 313.347 165.344 314.758C159.653 315.846 153.763 316.968 148.017 317.291C147.389 317.324 146.694 317.379 145.966 317.446C144.72 317.546 143.187 317.679 141.72 317.679C140.253 317.679 138.996 317.568 138.036 317.213C138.124 316.902 138.268 316.513 138.499 316.08C141.389 310.592 144.642 305.182 147.797 299.939C152.87 291.519 158.12 282.809 162.134 273.312C163.965 268.968 165.619 264.491 167.031 259.981L167.163 259.581C168.09 256.727 169.634 251.961 166.744 249.162C166.105 248.539 164.924 247.729 163.105 247.729C162.344 247.729 161.472 247.873 160.48 248.24C153.84 250.683 146.914 252.061 139.856 252.35C140.396 251.561 141.179 250.539 142.326 249.239C148.867 241.841 154.679 233.876 159.631 225.534L161.362 222.623C165.288 216.047 169.347 209.259 172.369 202.117C173.185 200.184 174.718 196.573 173.748 192.774C173.45 191.575 172.843 190.63 171.95 189.975C171.167 189.408 170.262 189.12 169.259 189.12C168.95 189.12 168.63 189.142 168.31 189.197L165.685 189.642C160.656 190.497 155.473 191.375 150.466 191.53C152.142 185.709 159.52 171.501 162.156 166.425C163.48 163.881 164.516 161.87 165.035 160.759C165.266 160.271 165.586 159.515 165.994 158.571C173.428 141.33 176.957 138.542 178.06 138.12C178.832 138.498 179.725 139.342 180.596 140.175C181.821 141.33 184.832 143.685 190.489 148.095C198.496 154.327 218.469 169.879 223.664 176.034C219.032 177.9 213.959 179.2 209.04 180.455L206.47 181.11C205.091 181.466 204.077 182.199 203.448 183.299C202.897 184.265 202.72 185.376 202.919 186.598C203.558 190.475 206.393 193.152 207.926 194.585C213.54 199.884 219.969 204.449 226.179 208.871L228.958 210.848C236.821 216.48 245.336 221.412 254.236 225.5C255.824 226.233 256.96 226.855 257.776 227.355C251.203 229.955 244.321 231.51 237.263 231.965C233.7 232.199 232.377 234.187 231.903 235.354C230.381 239.097 233.711 242.83 235.685 245.062L235.961 245.385C239.071 248.939 242.369 252.372 245.777 255.593C253.243 262.658 261.537 268.502 269.544 274.145C274.529 277.655 279.679 281.288 284.51 285.142C284.896 285.453 285.183 285.753 285.392 285.998C283.892 287.464 280.551 288.63 278.246 289.43C277.551 289.675 276.889 289.897 276.305 290.13C270.923 292.163 265.077 293.529 259.43 294.84C248.479 297.395 229.101 300.572 216.903 301.239C214.775 301.35 213.143 303.183 213.253 305.327C213.363 307.393 215.05 309.004 217.102 309.004C217.179 309.004 217.245 309.004 217.322 309.004C229.939 308.315 249.913 305.049 261.184 302.416C267.073 301.039 273.161 299.617 279.018 297.406C279.558 297.206 280.154 296.995 280.782 296.773C284.709 295.407 290.091 293.529 292.572 289.297C294.436 286.12 293.157 282.099 289.308 279.033C284.3 275.045 279.051 271.345 273.978 267.768C266.191 262.281 258.129 256.593 251.06 249.917C247.828 246.862 244.696 243.607 241.751 240.241L241.431 239.875C241.299 239.719 241.167 239.575 241.045 239.43C248.766 238.586 256.276 236.564 263.412 233.41C263.886 233.198 264.768 232.81 265.551 231.988C266.897 230.577 267.459 228.788 267.107 226.955C266.522 223.867 263.555 221.235 257.467 218.435C248.964 214.525 240.891 209.837 233.413 204.494C232.487 203.827 231.561 203.172 230.623 202.505C224.624 198.24 218.414 193.83 213.198 188.897C212.79 188.52 212.382 188.12 211.996 187.709C217.19 186.376 222.528 184.965 227.601 182.799C228.495 182.421 230.866 181.399 231.991 178.877C233.491 175.512 231.958 172.123 218.911 160.97C211.477 154.616 202.07 147.285 195.199 141.941C190.732 138.464 186.872 135.465 185.879 134.521C184.49 133.21 182.78 131.588 180.508 130.733C179.659 130.422 178.832 130.266 178.016 130.266M178.016 128.044C179.108 128.044 180.199 128.244 181.28 128.644C183.971 129.655 185.956 131.521 187.39 132.888C188.306 133.754 192.287 136.854 196.5 140.131L195.232 141.952L196.577 140.197C203.459 145.552 212.878 152.883 220.333 159.26C233.281 170.346 236.226 174.756 233.998 179.766C232.52 183.088 229.465 184.398 228.462 184.821C224.568 186.487 220.532 187.72 216.407 188.831C221.149 193.041 226.598 196.907 231.88 200.673C232.829 201.339 233.755 202.006 234.682 202.672C242.038 207.938 250.012 212.559 258.372 216.402C265.177 219.535 268.54 222.656 269.268 226.522C269.742 229.055 268.959 231.599 267.129 233.51C266.037 234.643 264.857 235.165 264.294 235.42C258.25 238.097 251.931 239.986 245.457 241.052C247.74 243.552 250.122 245.973 252.56 248.284C259.508 254.86 267.504 260.492 275.224 265.936C280.319 269.524 285.591 273.245 290.653 277.277C295.418 281.077 296.906 286.231 294.447 290.419C291.546 295.34 285.723 297.373 281.477 298.861L281.378 298.895C280.804 299.095 280.264 299.284 279.768 299.472C273.779 301.727 267.625 303.172 261.669 304.56C250.299 307.215 230.149 310.503 217.411 311.203C217.3 311.203 217.19 311.203 217.069 311.203C213.848 311.203 211.201 308.659 211.025 305.427C210.849 302.061 213.418 299.172 216.76 298.995C228.848 298.339 248.049 295.196 258.912 292.652C264.493 291.352 270.25 290.008 275.511 288.019C276.117 287.786 276.79 287.553 277.507 287.308C278.665 286.909 280.297 286.331 281.665 285.709C277.308 282.321 272.72 279.088 268.276 275.955C260.203 270.257 251.854 264.369 244.255 257.204C240.803 253.938 237.45 250.45 234.296 246.84L234.02 246.529C231.847 244.085 227.8 239.519 229.84 234.498C230.381 233.176 232.167 230.055 237.097 229.733C242.214 229.399 247.255 228.466 252.14 226.967C243.527 222.923 235.299 218.102 227.656 212.636L224.888 210.659C218.613 206.193 212.117 201.583 206.393 196.185C204.794 194.685 201.485 191.552 200.724 186.931C200.437 185.187 200.702 183.576 201.518 182.154C202.445 180.544 203.967 179.433 205.908 178.933L208.488 178.278C212.249 177.322 216.109 176.334 219.749 175.089C212.558 168.058 195.882 155.083 189.133 149.828C183.254 145.252 180.376 142.997 179.074 141.775C178.766 141.486 178.413 141.141 178.071 140.842C176.725 142.275 173.527 146.618 168.002 159.437C167.582 160.404 167.252 161.181 167.02 161.681C166.48 162.848 165.421 164.881 164.097 167.436C162.013 171.446 156.3 182.443 153.653 189.086C157.502 188.742 161.461 188.075 165.31 187.42L167.946 186.976C168.399 186.898 168.84 186.864 169.259 186.864C170.737 186.864 172.082 187.298 173.251 188.153C174.553 189.108 175.457 190.508 175.887 192.208C177.034 196.74 175.247 200.95 174.398 202.972C171.31 210.248 167.218 217.113 163.248 223.745L161.517 226.656C156.719 234.743 151.116 242.485 144.841 249.695C149.914 249.095 154.899 247.895 159.719 246.129C160.877 245.707 162.024 245.485 163.105 245.485C165.068 245.485 166.91 246.218 168.266 247.54C172.148 251.317 170.262 257.126 169.248 260.248L169.115 260.648C167.682 265.213 166.005 269.757 164.152 274.167C160.083 283.809 154.789 292.585 149.672 301.072C146.859 305.749 143.948 310.57 141.323 315.435C141.444 315.435 141.576 315.435 141.709 315.435C143.087 315.435 144.576 315.313 145.778 315.213C146.528 315.147 147.234 315.091 147.885 315.058C153.488 314.736 159.3 313.636 164.924 312.558C172.27 311.159 182.615 308.615 191.923 305.915C192.474 305.76 193.037 305.671 193.61 305.671C196.301 305.671 198.695 307.493 199.434 310.092C199.886 311.659 199.698 313.314 198.915 314.736C198.132 316.169 196.842 317.202 195.287 317.646C185.648 320.445 174.883 323.089 167.185 324.556C161.175 325.7 154.965 326.888 148.58 327.244C148.028 327.277 147.422 327.322 146.771 327.377C145.271 327.499 143.573 327.644 141.775 327.644C137.419 327.644 134.066 326.755 131.518 324.922C127.592 322.09 126.886 316.768 129.731 311.359C132.753 305.627 136.084 300.083 139.305 294.729C144.201 286.598 149.264 278.199 153.002 269.357C154.315 266.258 155.517 263.07 156.609 259.859C150.256 261.514 143.716 262.347 137.121 262.347C136.503 262.347 135.213 262.347 133.768 261.748C131.32 260.748 129.588 258.726 129.004 256.216C128.121 252.383 129.952 248.151 134.948 242.496C141.047 235.598 146.484 228.144 151.116 220.346L152.87 217.413C156.212 211.826 159.653 206.06 162.311 200.273C158.087 200.928 153.907 201.439 149.683 201.495C149.583 201.495 149.451 201.495 149.297 201.495C146.573 201.495 144.323 200.695 142.58 199.106C137.463 194.441 140.275 186.942 153.377 161.737C154.59 159.393 155.638 157.382 156.057 156.471C156.256 156.038 156.543 155.383 156.895 154.561C162.697 141.108 169.104 128 178.06 128L178.016 128.044Z" fill="#25C6F9"/>
</g>
<g filter="url(#filter1_d_263_3098)">
<path d="M141.731 326.544C143.473 326.544 145.15 326.411 146.628 326.289C147.289 326.233 147.896 326.189 148.469 326.156C154.789 325.8 160.965 324.623 166.932 323.478C174.586 322.023 185.317 319.379 194.934 316.602C196.213 316.236 197.261 315.391 197.901 314.214C198.54 313.047 198.695 311.692 198.331 310.415C197.724 308.282 195.761 306.793 193.566 306.793C193.103 306.793 192.64 306.86 192.188 306.993C182.857 309.704 172.468 312.248 165.09 313.658C159.432 314.736 153.576 315.847 147.907 316.169C147.267 316.202 146.562 316.258 145.823 316.324C144.609 316.424 143.087 316.547 141.665 316.547C140.827 316.547 140.099 316.502 139.503 316.413C142.36 311.003 145.58 305.66 148.69 300.484C153.785 292.03 159.046 283.287 163.094 273.712C164.936 269.346 166.601 264.825 168.024 260.281L168.156 259.882C169.093 256.993 170.836 251.606 167.45 248.318C166.634 247.518 165.2 246.573 163.05 246.573C162.09 246.573 161.086 246.762 160.039 247.151C154.26 249.273 148.249 250.584 142.128 251.05C142.426 250.695 142.746 250.317 143.087 249.928C149.672 242.485 155.528 234.454 160.513 226.056L162.244 223.145C166.193 216.536 170.273 209.715 173.328 202.506C174.2 200.451 175.821 196.618 174.762 192.452C174.398 190.997 173.648 189.842 172.545 189.031C171.575 188.32 170.45 187.953 169.204 187.953C168.84 187.953 168.454 187.987 168.079 188.053L165.443 188.498C160.987 189.253 156.399 190.031 151.955 190.297C154.26 183.876 160.811 171.268 163.072 166.891C164.395 164.336 165.443 162.326 165.972 161.182C166.204 160.693 166.535 159.926 166.943 158.96C173.461 143.852 176.858 140.209 177.983 139.353C178.534 139.742 179.185 140.364 179.78 140.931C181.038 142.119 184.071 144.485 189.761 148.918C196.941 154.505 215.304 168.802 221.712 175.523C217.554 177.067 213.065 178.211 208.72 179.322L206.15 179.977C204.474 180.411 203.228 181.322 202.445 182.677C201.761 183.876 201.54 185.232 201.783 186.72C202.478 190.964 205.5 193.808 207.121 195.341C212.79 200.695 219.252 205.283 225.495 209.715L228.274 211.692C236.204 217.358 244.762 222.323 253.729 226.456C254.203 226.678 254.655 226.889 255.085 227.111C249.295 229.166 243.273 230.41 237.141 230.81C232.983 231.077 231.406 233.476 230.833 234.887C229.057 239.264 232.807 243.496 234.825 245.763L235.101 246.074C238.233 249.651 241.553 253.116 244.983 256.36C252.515 263.481 260.831 269.346 268.882 275.011C273.801 278.477 278.896 282.065 283.661 285.865C282.084 286.864 279.602 287.731 277.849 288.342C277.143 288.586 276.47 288.819 275.874 289.053C270.559 291.063 264.757 292.419 259.144 293.729C248.236 296.273 228.947 299.439 216.804 300.095C214.069 300.239 211.973 302.605 212.117 305.36C212.26 308.015 214.433 310.092 217.058 310.092C217.146 310.092 217.245 310.092 217.333 310.092C230.006 309.404 250.067 306.127 261.383 303.483C267.316 302.094 273.437 300.672 279.36 298.428C279.867 298.24 280.418 298.04 281.003 297.84C285.183 296.384 290.785 294.429 293.476 289.853C295.638 286.176 294.26 281.577 289.947 278.144C284.907 274.134 279.646 270.424 274.573 266.847C266.809 261.381 258.791 255.716 251.777 249.095C248.821 246.296 245.942 243.33 243.229 240.264C250.321 239.286 257.236 237.32 263.82 234.41C264.327 234.187 265.375 233.721 266.312 232.743C267.923 231.066 268.573 228.933 268.165 226.733C267.515 223.257 264.349 220.379 257.897 217.413C249.471 213.536 241.442 208.882 234.031 203.583L231.23 201.595C225.34 197.407 219.264 193.086 214.135 188.298C218.911 187.054 223.554 185.721 228.009 183.821C229.013 183.399 231.671 182.255 232.972 179.333C234.935 174.912 232.057 170.779 219.605 160.126C212.172 153.761 202.753 146.441 195.882 141.086C191.57 137.731 187.567 134.61 186.618 133.721C185.162 132.344 183.354 130.633 180.872 129.711C179.924 129.355 178.953 129.178 177.994 129.178C169.711 129.178 163.259 142.53 157.855 155.039C157.48 155.916 157.193 156.572 156.995 157.005C156.554 157.949 155.506 159.971 154.293 162.315C140.926 188.053 138.963 194.452 143.253 198.362C144.775 199.751 146.793 200.462 149.23 200.462H149.605C154.436 200.395 159.223 199.728 164.086 198.929C161.307 205.416 157.469 211.837 153.752 218.058L151.999 220.99C147.334 228.855 141.852 236.365 135.709 243.319C130.978 248.673 129.224 252.594 130.018 256.038C130.526 258.226 131.981 259.915 134.121 260.792C135.378 261.303 136.514 261.303 137.066 261.303C144.256 261.303 151.381 260.293 158.252 258.304C156.984 262.214 155.55 266.102 153.962 269.857C150.19 278.777 145.117 287.198 140.209 295.351C136.977 300.706 133.658 306.227 130.658 311.937C128.088 316.824 128.662 321.59 132.114 324.078C134.463 325.767 137.606 326.589 141.731 326.589V326.544Z" fill="#49CBF4"/>
<path d="M178.005 130.244C170.439 130.244 164.208 143.097 158.881 155.438C158.506 156.305 158.219 156.982 158.009 157.427C157.557 158.393 156.509 160.426 155.285 162.781C142.393 187.598 140.286 194.085 144.014 197.473C145.845 199.14 148.094 199.284 149.253 199.284C149.385 199.284 149.506 199.284 149.605 199.284C155.12 199.206 160.568 198.34 165.862 197.44C165.674 197.973 165.454 198.506 165.244 199.017C162.432 205.66 158.517 212.214 154.723 218.568L152.969 221.501C148.271 229.422 142.745 236.998 136.558 243.996C132.081 249.062 130.415 252.672 131.121 255.727C131.54 257.549 132.764 258.959 134.562 259.704C135.621 260.137 136.569 260.137 137.088 260.137C144.885 260.137 152.572 258.937 159.973 256.571C159.917 256.749 159.862 256.938 159.796 257.138L159.653 257.604C158.307 261.881 156.741 266.124 155.01 270.235C151.216 279.221 146.109 287.686 141.179 295.873C137.97 301.205 134.65 306.715 131.662 312.403C129.368 316.768 129.809 320.979 132.786 323.123C135.356 324.978 138.643 325.433 141.764 325.433C143.462 325.433 145.117 325.3 146.573 325.178C147.234 325.122 147.863 325.067 148.436 325.044C154.679 324.689 160.822 323.523 166.766 322.389C174.398 320.934 185.085 318.313 194.669 315.535C196.721 314.947 197.901 312.792 197.316 310.725C196.831 309.026 195.287 307.915 193.61 307.915C193.258 307.915 192.894 307.959 192.541 308.07C183.177 310.781 172.755 313.347 165.344 314.758C159.653 315.846 153.763 316.968 148.017 317.291C147.389 317.324 146.694 317.379 145.966 317.446C144.72 317.546 143.187 317.679 141.72 317.679C140.253 317.679 138.996 317.568 138.036 317.213C138.124 316.902 138.268 316.513 138.499 316.08C141.389 310.592 144.642 305.182 147.797 299.939C152.87 291.519 158.12 282.809 162.134 273.312C163.965 268.968 165.619 264.491 167.031 259.981L167.163 259.581C168.09 256.727 169.634 251.961 166.744 249.162C166.105 248.539 164.924 247.729 163.105 247.729C162.344 247.729 161.472 247.873 160.48 248.24C153.84 250.683 146.914 252.061 139.856 252.35C140.396 251.561 141.179 250.539 142.326 249.239C148.867 241.841 154.679 233.876 159.631 225.534L161.362 222.623C165.288 216.047 169.347 209.259 172.369 202.117C173.185 200.184 174.718 196.573 173.748 192.774C173.45 191.575 172.843 190.63 171.95 189.975C171.167 189.408 170.262 189.12 169.259 189.12C168.95 189.12 168.63 189.142 168.31 189.197L165.685 189.642C160.656 190.497 155.473 191.375 150.466 191.53C152.142 185.709 159.52 171.501 162.156 166.425C163.48 163.881 164.516 161.87 165.035 160.759C165.266 160.271 165.586 159.515 165.994 158.571C173.428 141.33 176.957 138.542 178.06 138.12C178.832 138.498 179.725 139.342 180.596 140.175C181.821 141.33 184.832 143.685 190.489 148.095C198.496 154.327 218.469 169.879 223.664 176.034C219.032 177.9 213.959 179.2 209.04 180.455L206.47 181.11C205.091 181.466 204.077 182.199 203.448 183.299C202.897 184.265 202.72 185.376 202.919 186.598C203.558 190.475 206.393 193.152 207.926 194.585C213.54 199.884 219.969 204.449 226.179 208.871L228.958 210.848C236.821 216.48 245.336 221.412 254.236 225.5C255.824 226.233 256.96 226.855 257.776 227.355C251.203 229.955 244.321 231.51 237.263 231.965C233.7 232.199 232.377 234.187 231.903 235.354C230.381 239.097 233.711 242.83 235.685 245.062L235.961 245.385C239.071 248.939 242.369 252.372 245.777 255.593C253.243 262.658 261.537 268.502 269.544 274.145C274.529 277.655 279.679 281.288 284.51 285.142C284.896 285.453 285.183 285.753 285.392 285.998C283.892 287.464 280.551 288.63 278.246 289.43C277.551 289.675 276.889 289.897 276.305 290.13C270.923 292.163 265.077 293.529 259.43 294.84C248.479 297.395 229.101 300.572 216.903 301.239C214.775 301.35 213.143 303.183 213.253 305.327C213.363 307.393 215.05 309.004 217.102 309.004C217.179 309.004 217.245 309.004 217.322 309.004C229.939 308.315 249.913 305.049 261.184 302.416C267.073 301.039 273.161 299.617 279.018 297.406C279.558 297.206 280.154 296.995 280.782 296.773C284.709 295.407 290.091 293.529 292.572 289.297C294.436 286.12 293.157 282.099 289.308 279.033C284.3 275.045 279.051 271.345 273.978 267.768C266.191 262.281 258.129 256.593 251.06 249.917C247.828 246.862 244.696 243.607 241.751 240.241L241.431 239.875C241.299 239.719 241.167 239.575 241.045 239.43C248.766 238.586 256.276 236.564 263.412 233.41C263.886 233.198 264.768 232.81 265.551 231.988C266.897 230.577 267.459 228.788 267.107 226.955C266.522 223.867 263.555 221.235 257.467 218.435C248.964 214.525 240.891 209.837 233.413 204.494C232.487 203.827 231.561 203.172 230.623 202.505C224.624 198.24 218.414 193.83 213.198 188.897C212.79 188.52 212.382 188.12 211.996 187.709C217.19 186.376 222.528 184.965 227.601 182.799C228.495 182.421 230.866 181.399 231.991 178.877C233.491 175.512 231.958 172.123 218.911 160.97C211.477 154.616 202.07 147.285 195.199 141.941C190.732 138.464 186.872 135.465 185.879 134.521C184.49 133.21 182.78 131.588 180.508 130.733C179.659 130.422 178.832 130.266 178.016 130.266M178.016 128.044C179.108 128.044 180.199 128.244 181.28 128.644C183.971 129.655 185.956 131.521 187.39 132.888C188.306 133.754 192.287 136.854 196.5 140.131L195.232 141.952L196.577 140.197C203.459 145.552 212.878 152.883 220.333 159.26C233.281 170.346 236.226 174.756 233.998 179.766C232.52 183.088 229.465 184.398 228.462 184.821C224.568 186.487 220.532 187.72 216.407 188.831C221.149 193.041 226.598 196.907 231.88 200.673C232.829 201.339 233.755 202.006 234.682 202.672C242.038 207.938 250.012 212.559 258.372 216.402C265.177 219.535 268.54 222.656 269.268 226.522C269.742 229.055 268.959 231.599 267.129 233.51C266.037 234.643 264.857 235.165 264.294 235.42C258.25 238.097 251.931 239.986 245.457 241.052C247.74 243.552 250.122 245.973 252.56 248.284C259.508 254.86 267.504 260.492 275.224 265.936C280.319 269.524 285.591 273.245 290.653 277.277C295.418 281.077 296.906 286.231 294.447 290.419C291.546 295.34 285.723 297.373 281.477 298.861L281.378 298.895C280.804 299.095 280.264 299.284 279.768 299.472C273.779 301.727 267.625 303.172 261.669 304.56C250.299 307.215 230.149 310.503 217.411 311.203C217.3 311.203 217.19 311.203 217.069 311.203C213.848 311.203 211.201 308.659 211.025 305.427C210.849 302.061 213.418 299.172 216.76 298.995C228.848 298.339 248.049 295.196 258.912 292.652C264.493 291.352 270.25 290.008 275.511 288.019C276.117 287.786 276.79 287.553 277.507 287.308C278.665 286.909 280.297 286.331 281.665 285.709C277.308 282.321 272.72 279.088 268.276 275.955C260.203 270.257 251.854 264.369 244.255 257.204C240.803 253.938 237.45 250.45 234.296 246.84L234.02 246.529C231.847 244.085 227.8 239.519 229.84 234.498C230.381 233.176 232.167 230.055 237.097 229.733C242.214 229.399 247.255 228.466 252.14 226.967C243.527 222.923 235.299 218.102 227.656 212.636L224.888 210.659C218.613 206.193 212.117 201.583 206.393 196.185C204.794 194.685 201.485 191.552 200.724 186.931C200.437 185.187 200.702 183.576 201.518 182.154C202.445 180.544 203.967 179.433 205.908 178.933L208.488 178.278C212.249 177.322 216.109 176.334 219.749 175.089C212.558 168.058 195.882 155.083 189.133 149.828C183.254 145.252 180.376 142.997 179.074 141.775C178.766 141.486 178.413 141.141 178.071 140.842C176.725 142.275 173.527 146.618 168.002 159.437C167.582 160.404 167.252 161.181 167.02 161.681C166.48 162.848 165.421 164.881 164.097 167.436C162.013 171.446 156.3 182.443 153.653 189.086C157.502 188.742 161.461 188.075 165.31 187.42L167.946 186.976C168.399 186.898 168.84 186.864 169.259 186.864C170.737 186.864 172.082 187.298 173.251 188.153C174.553 189.108 175.457 190.508 175.887 192.208C177.034 196.74 175.247 200.95 174.398 202.972C171.31 210.248 167.218 217.113 163.248 223.745L161.517 226.656C156.719 234.743 151.116 242.485 144.841 249.695C149.914 249.095 154.899 247.895 159.719 246.129C160.877 245.707 162.024 245.485 163.105 245.485C165.068 245.485 166.91 246.218 168.266 247.54C172.148 251.317 170.262 257.126 169.248 260.248L169.115 260.648C167.682 265.213 166.005 269.757 164.152 274.167C160.083 283.809 154.789 292.585 149.672 301.072C146.859 305.749 143.948 310.57 141.323 315.435C141.444 315.435 141.576 315.435 141.709 315.435C143.087 315.435 144.576 315.313 145.778 315.213C146.528 315.147 147.234 315.091 147.885 315.058C153.488 314.736 159.3 313.636 164.924 312.558C172.27 311.159 182.615 308.615 191.923 305.915C192.474 305.76 193.037 305.671 193.61 305.671C196.301 305.671 198.695 307.493 199.434 310.092C199.886 311.659 199.698 313.314 198.915 314.736C198.132 316.169 196.842 317.202 195.287 317.646C185.648 320.445 174.883 323.089 167.185 324.556C161.175 325.7 154.965 326.888 148.58 327.244C148.028 327.277 147.422 327.322 146.771 327.377C145.271 327.499 143.573 327.644 141.775 327.644C137.419 327.644 134.066 326.755 131.518 324.922C127.592 322.09 126.886 316.768 129.731 311.359C132.753 305.627 136.084 300.083 139.305 294.729C144.201 286.598 149.264 278.199 153.002 269.357C154.315 266.258 155.517 263.07 156.609 259.859C150.256 261.514 143.716 262.347 137.121 262.347C136.503 262.347 135.213 262.347 133.768 261.748C131.32 260.748 129.588 258.726 129.004 256.216C128.121 252.383 129.952 248.151 134.948 242.496C141.047 235.598 146.484 228.144 151.116 220.346L152.87 217.413C156.212 211.826 159.653 206.06 162.311 200.273C158.087 200.928 153.907 201.439 149.683 201.495C149.583 201.495 149.451 201.495 149.297 201.495C146.573 201.495 144.323 200.695 142.58 199.106C137.463 194.441 140.275 186.942 153.377 161.737C154.59 159.393 155.638 157.382 156.057 156.471C156.256 156.038 156.543 155.383 156.895 154.561C162.697 141.108 169.104 128 178.06 128L178.016 128.044Z" fill="#25C6F9"/>
</g>
<defs>
<filter id="filter0_d_263_3098" x="0.153847" y="0.153847" width="423.309" height="455.336" filterUnits="userSpaceOnUse" color-interpolation-filters="sRGB">
<feFlood flood-opacity="0" result="BackgroundImageFix"/>
<feColorMatrix in="SourceAlpha" type="matrix" values="0 0 0 0 0 0 0 0 0 0 0 0 0 0 0 0 0 0 127 0" result="hardAlpha"/>
<feOffset/>
<feGaussianBlur stdDeviation="63.9231"/>
<feColorMatrix type="matrix" values="0 0 0 0 0.223529 0 0 0 0 0.705882 0 0 0 0 0.290196 0 0 0 1 0"/>
<feBlend mode="normal" in2="BackgroundImageFix" result="effect1_dropShadow_263_3098"/>
<feBlend mode="normal" in="SourceGraphic" in2="effect1_dropShadow_263_3098" result="shape"/>
</filter>
<filter id="filter1_d_263_3098" x="68.3385" y="68.3385" width="286.94" height="318.967" filterUnits="userSpaceOnUse" color-interpolation-filters="sRGB">
<feFlood flood-opacity="0" result="BackgroundImageFix"/>
<feColorMatrix in="SourceAlpha" type="matrix" values="0 0 0 0 0 0 0 0 0 0 0 0 0 0 0 0 0 0 127 0" result="hardAlpha"/>
<feOffset/>
<feGaussianBlur stdDeviation="29.8308"/>
<feColorMatrix type="matrix" values="0 0 0 0 0.14625 0 0 0 0 0.7761 0 0 0 0 0.975 0 0 0 1 0"/>
<feBlend mode="normal" in2="BackgroundImageFix" result="effect1_dropShadow_263_3098"/>
<feBlend mode="normal" in="SourceGraphic" in2="effect1_dropShadow_263_3098" result="shape"/>
</filter>
</defs>
</svg>
