<svg width="280" height="280" viewBox="0 0 280 280" fill="none" xmlns="http://www.w3.org/2000/svg">
<rect width="280" height="280" rx="140" fill="url(#paint0_linear_263_3395)"/>
<path d="M89.08 139.58H82.36V146H80.7V132H82.36V138.1H89.08V132H90.74V146H89.08V139.58ZM93.8175 136.74C94.3242 136.433 94.9108 136.207 95.5775 136.06C96.2575 135.913 96.9642 135.84 97.6975 135.84C98.3908 135.84 98.9442 135.933 99.3575 136.12C99.7842 136.307 100.104 136.553 100.318 136.86C100.544 137.153 100.691 137.48 100.758 137.84C100.838 138.2 100.878 138.56 100.878 138.92C100.878 139.72 100.858 140.5 100.818 141.26C100.778 142.02 100.758 142.74 100.758 143.42C100.758 143.913 100.778 144.38 100.818 144.82C100.858 145.26 100.931 145.667 101.038 146.04H99.8575L99.4375 144.64H99.3375C99.2175 144.827 99.0642 145.013 98.8775 145.2C98.7042 145.373 98.4908 145.533 98.2375 145.68C97.9842 145.813 97.6908 145.927 97.3575 146.02C97.0242 146.113 96.6442 146.16 96.2175 146.16C95.7908 146.16 95.3908 146.093 95.0175 145.96C94.6575 145.827 94.3442 145.64 94.0775 145.4C93.8108 145.147 93.5975 144.847 93.4375 144.5C93.2908 144.153 93.2175 143.76 93.2175 143.32C93.2175 142.733 93.3375 142.247 93.5775 141.86C93.8175 141.46 94.1508 141.147 94.5775 140.92C95.0175 140.68 95.5375 140.513 96.1375 140.42C96.7508 140.313 97.4242 140.26 98.1575 140.26C98.3442 140.26 98.5242 140.26 98.6975 140.26C98.8842 140.26 99.0708 140.273 99.2575 140.3C99.2975 139.9 99.3175 139.54 99.3175 139.22C99.3175 138.487 99.1708 137.973 98.8775 137.68C98.5842 137.387 98.0508 137.24 97.2775 137.24C97.0508 137.24 96.8042 137.26 96.5375 137.3C96.2842 137.327 96.0175 137.373 95.7375 137.44C95.4708 137.493 95.2108 137.567 94.9575 137.66C94.7175 137.74 94.5042 137.833 94.3175 137.94L93.8175 136.74ZM96.6575 144.76C97.0308 144.76 97.3642 144.713 97.6575 144.62C97.9508 144.513 98.2042 144.387 98.4175 144.24C98.6308 144.08 98.8042 143.907 98.9375 143.72C99.0842 143.533 99.1908 143.353 99.2575 143.18V141.52C99.0708 141.507 98.8775 141.5 98.6775 141.5C98.4908 141.487 98.3042 141.48 98.1175 141.48C97.7042 141.48 97.2975 141.507 96.8975 141.56C96.5108 141.6 96.1642 141.687 95.8575 141.82C95.5642 141.94 95.3242 142.113 95.1375 142.34C94.9642 142.553 94.8775 142.827 94.8775 143.16C94.8775 143.627 95.0442 144.013 95.3775 144.32C95.7108 144.613 96.1375 144.76 96.6575 144.76ZM104.939 136V138.72C104.939 139.08 104.959 139.407 104.999 139.7C105.039 139.98 105.119 140.227 105.239 140.44C105.359 140.64 105.533 140.8 105.759 140.92C105.986 141.027 106.286 141.08 106.659 141.08C107.259 141.08 107.753 141.013 108.139 140.88C108.526 140.747 108.819 140.6 109.019 140.44V136H110.619V146H109.019V141.8C108.806 141.933 108.486 142.08 108.059 142.24C107.646 142.4 107.073 142.48 106.339 142.48C105.846 142.48 105.413 142.427 105.039 142.32C104.666 142.213 104.353 142.027 104.099 141.76C103.846 141.493 103.653 141.14 103.519 140.7C103.399 140.26 103.339 139.707 103.339 139.04V136H104.939ZM113.544 136.74C114.051 136.433 114.637 136.207 115.304 136.06C115.984 135.913 116.691 135.84 117.424 135.84C118.117 135.84 118.671 135.933 119.084 136.12C119.511 136.307 119.831 136.553 120.044 136.86C120.271 137.153 120.417 137.48 120.484 137.84C120.564 138.2 120.604 138.56 120.604 138.92C120.604 139.72 120.584 140.5 120.544 141.26C120.504 142.02 120.484 142.74 120.484 143.42C120.484 143.913 120.504 144.38 120.544 144.82C120.584 145.26 120.657 145.667 120.764 146.04H119.584L119.164 144.64H119.064C118.944 144.827 118.791 145.013 118.604 145.2C118.431 145.373 118.217 145.533 117.964 145.68C117.711 145.813 117.417 145.927 117.084 146.02C116.751 146.113 116.371 146.16 115.944 146.16C115.517 146.16 115.117 146.093 114.744 145.96C114.384 145.827 114.071 145.64 113.804 145.4C113.537 145.147 113.324 144.847 113.164 144.5C113.017 144.153 112.944 143.76 112.944 143.32C112.944 142.733 113.064 142.247 113.304 141.86C113.544 141.46 113.877 141.147 114.304 140.92C114.744 140.68 115.264 140.513 115.864 140.42C116.477 140.313 117.151 140.26 117.884 140.26C118.071 140.26 118.251 140.26 118.424 140.26C118.611 140.26 118.797 140.273 118.984 140.3C119.024 139.9 119.044 139.54 119.044 139.22C119.044 138.487 118.897 137.973 118.604 137.68C118.311 137.387 117.777 137.24 117.004 137.24C116.777 137.24 116.531 137.26 116.264 137.3C116.011 137.327 115.744 137.373 115.464 137.44C115.197 137.493 114.937 137.567 114.684 137.66C114.444 137.74 114.231 137.833 114.044 137.94L113.544 136.74ZM116.384 144.76C116.757 144.76 117.091 144.713 117.384 144.62C117.677 144.513 117.931 144.387 118.144 144.24C118.357 144.08 118.531 143.907 118.664 143.72C118.811 143.533 118.917 143.353 118.984 143.18V141.52C118.797 141.507 118.604 141.5 118.404 141.5C118.217 141.487 118.031 141.48 117.844 141.48C117.431 141.48 117.024 141.507 116.624 141.56C116.237 141.6 115.891 141.687 115.584 141.82C115.291 141.94 115.051 142.113 114.864 142.34C114.691 142.553 114.604 142.827 114.604 143.16C114.604 143.627 114.771 144.013 115.104 144.32C115.437 144.613 115.864 144.76 116.384 144.76ZM129.986 137.4H126.866V146H125.266V137.4H122.146V136H129.986V137.4ZM133.175 144.6C133.668 144.68 134.142 144.72 134.595 144.72C135.435 144.72 136.055 144.56 136.455 144.24C136.855 143.907 137.055 143.44 137.055 142.84C137.055 142.307 136.862 141.867 136.475 141.52C136.088 141.173 135.482 141 134.655 141C134.428 141 134.182 141.007 133.915 141.02C133.648 141.033 133.402 141.073 133.175 141.14V144.6ZM133.175 139.82C133.495 139.767 133.802 139.733 134.095 139.72C134.388 139.693 134.668 139.68 134.935 139.68C135.628 139.68 136.215 139.76 136.695 139.92C137.175 140.067 137.562 140.273 137.855 140.54C138.162 140.807 138.382 141.127 138.515 141.5C138.648 141.86 138.715 142.247 138.715 142.66C138.715 143.873 138.348 144.753 137.615 145.3C136.895 145.847 135.768 146.12 134.235 146.12C133.382 146.12 132.495 146.08 131.575 146V136H133.175V139.82ZM151.721 140.08L151.781 138.84H151.721L150.901 140.12L146.401 146H145.481V136H147.081V142.1L147.021 143.28H147.101L147.881 142.04L152.381 136H153.321V146H151.721V140.08ZM162.239 137.4H157.999V146H156.399V136H162.239V137.4ZM163.782 136H164.882L165.182 137.2H165.262C165.569 136.733 165.962 136.38 166.442 136.14C166.936 135.887 167.496 135.76 168.122 135.76C169.456 135.76 170.449 136.153 171.102 136.94C171.756 137.727 172.082 139.013 172.082 140.8C172.082 141.64 171.969 142.4 171.742 143.08C171.529 143.747 171.222 144.313 170.822 144.78C170.422 145.247 169.936 145.607 169.362 145.86C168.802 146.113 168.176 146.24 167.482 146.24C166.989 146.24 166.596 146.207 166.302 146.14C166.022 146.087 165.716 145.987 165.382 145.84V150H163.782V136ZM167.822 137.16C167.142 137.16 166.602 137.34 166.202 137.7C165.816 138.047 165.542 138.58 165.382 139.3V144.26C165.622 144.447 165.896 144.593 166.202 144.7C166.509 144.793 166.916 144.84 167.422 144.84C168.342 144.84 169.069 144.5 169.602 143.82C170.149 143.127 170.422 142.113 170.422 140.78C170.422 140.233 170.376 139.74 170.282 139.3C170.189 138.847 170.036 138.467 169.822 138.16C169.622 137.84 169.356 137.593 169.022 137.42C168.702 137.247 168.302 137.16 167.822 137.16ZM174.443 136.74C174.949 136.433 175.536 136.207 176.203 136.06C176.883 135.913 177.589 135.84 178.323 135.84C179.016 135.84 179.569 135.933 179.983 136.12C180.409 136.307 180.729 136.553 180.943 136.86C181.169 137.153 181.316 137.48 181.383 137.84C181.463 138.2 181.503 138.56 181.503 138.92C181.503 139.72 181.483 140.5 181.443 141.26C181.403 142.02 181.383 142.74 181.383 143.42C181.383 143.913 181.403 144.38 181.443 144.82C181.483 145.26 181.556 145.667 181.663 146.04H180.483L180.063 144.64H179.963C179.843 144.827 179.689 145.013 179.503 145.2C179.329 145.373 179.116 145.533 178.863 145.68C178.609 145.813 178.316 145.927 177.983 146.02C177.649 146.113 177.269 146.16 176.843 146.16C176.416 146.16 176.016 146.093 175.643 145.96C175.283 145.827 174.969 145.64 174.703 145.4C174.436 145.147 174.223 144.847 174.063 144.5C173.916 144.153 173.843 143.76 173.843 143.32C173.843 142.733 173.963 142.247 174.203 141.86C174.443 141.46 174.776 141.147 175.203 140.92C175.643 140.68 176.163 140.513 176.763 140.42C177.376 140.313 178.049 140.26 178.783 140.26C178.969 140.26 179.149 140.26 179.323 140.26C179.509 140.26 179.696 140.273 179.883 140.3C179.923 139.9 179.943 139.54 179.943 139.22C179.943 138.487 179.796 137.973 179.503 137.68C179.209 137.387 178.676 137.24 177.903 137.24C177.676 137.24 177.429 137.26 177.163 137.3C176.909 137.327 176.643 137.373 176.363 137.44C176.096 137.493 175.836 137.567 175.583 137.66C175.343 137.74 175.129 137.833 174.943 137.94L174.443 136.74ZM177.283 144.76C177.656 144.76 177.989 144.713 178.283 144.62C178.576 144.513 178.829 144.387 179.043 144.24C179.256 144.08 179.429 143.907 179.563 143.72C179.709 143.533 179.816 143.353 179.883 143.18V141.52C179.696 141.507 179.503 141.5 179.303 141.5C179.116 141.487 178.929 141.48 178.743 141.48C178.329 141.48 177.923 141.507 177.523 141.56C177.136 141.6 176.789 141.687 176.483 141.82C176.189 141.94 175.949 142.113 175.763 142.34C175.589 142.553 175.503 142.827 175.503 143.16C175.503 143.627 175.669 144.013 176.002 144.32C176.336 144.613 176.763 144.76 177.283 144.76ZM190.884 137.4H187.764V146H186.164V137.4H183.044V136H190.884V137.4ZM194.074 144.6C194.567 144.68 195.04 144.72 195.494 144.72C196.334 144.72 196.954 144.56 197.354 144.24C197.754 143.907 197.954 143.44 197.954 142.84C197.954 142.307 197.76 141.867 197.374 141.52C196.987 141.173 196.38 141 195.554 141C195.327 141 195.08 141.007 194.814 141.02C194.547 141.033 194.3 141.073 194.074 141.14V144.6ZM194.074 139.82C194.394 139.767 194.7 139.733 194.994 139.72C195.287 139.693 195.567 139.68 195.834 139.68C196.527 139.68 197.114 139.76 197.594 139.92C198.074 140.067 198.46 140.273 198.754 140.54C199.06 140.807 199.28 141.127 199.414 141.5C199.547 141.86 199.614 142.247 199.614 142.66C199.614 143.873 199.247 144.753 198.514 145.3C197.794 145.847 196.667 146.12 195.134 146.12C194.28 146.12 193.394 146.08 192.474 146V136H194.074V139.82Z" fill="white"/>
<defs>
<linearGradient id="paint0_linear_263_3395" x1="74.6667" y1="140" x2="272.533" y2="140" gradientUnits="userSpaceOnUse">
<stop stop-color="#800BF5"/>
<stop offset="1" stop-color="#25C6F9"/>
</linearGradient>
</defs>
</svg>
