<svg width="183" height="153" viewBox="0 0 183 153" fill="none" xmlns="http://www.w3.org/2000/svg">
<path d="M9.86512 152.501C9.5887 152.979 8.97702 153.142 8.49888 152.866L0.707276 148.361C0.229144 148.085 0.0656237 147.473 0.342046 146.995C0.618454 146.517 1.23014 146.354 1.70827 146.63L8.63416 150.634L12.6382 143.708C12.9146 143.23 13.5263 143.066 14.0044 143.343C14.4826 143.619 14.6461 144.231 14.3697 144.709L9.86512 152.501ZM181.636 13.9321C128.188 -6.94979 78.5781 2.52526 45.6981 29.6466C12.8223 56.7643 -3.4368 101.608 9.96546 151.742L8.03332 152.258C-5.56454 101.392 10.9262 55.7357 44.4255 28.1037C77.9204 0.475201 128.31 -9.04936 182.363 12.0692L181.636 13.9321Z" fill="url(#paint0_linear_263_3391)"/>
<defs>
<linearGradient id="paint0_linear_263_3391" x1="125.744" y1="32.536" x2="-8.47879" y2="110.03" gradientUnits="userSpaceOnUse">
<stop stop-color="#800BF5"/>
<stop offset="1" stop-color="#25C6F9"/>
</linearGradient>
</defs>
</svg>
