<svg width="232" height="120" viewBox="0 0 232 120" fill="none" xmlns="http://www.w3.org/2000/svg">
<path d="M223.283 119.298C223.674 119.689 224.307 119.689 224.697 119.298L231.061 112.934C231.452 112.544 231.452 111.911 231.061 111.52C230.671 111.13 230.037 111.13 229.647 111.52L223.99 117.177L218.333 111.52C217.943 111.13 217.31 111.13 216.919 111.52C216.529 111.911 216.528 112.544 216.919 112.934L223.283 119.298ZM1.00803 33.3618C66.5304 -5.27995 122.026 -3.33054 161.091 17.8652C200.204 39.0874 222.99 79.6671 222.99 118.591L224.99 118.591C224.99 78.9241 201.794 37.6747 162.044 16.1073C122.246 -5.48637 65.9961 -7.28673 -0.00795157 31.6391L1.00803 33.3618Z" fill="url(#paint0_linear_263_3393)"/>
<defs>
<linearGradient id="paint0_linear_263_3393" x1="78.6419" y1="23.338" x2="223.435" y2="106.934" gradientUnits="userSpaceOnUse">
<stop stop-color="#800BF5"/>
<stop offset="1" stop-color="#25C6F9"/>
</linearGradient>
</defs>
</svg>
